<svg width="1440" height="786" viewBox="0 0 1440 786" fill="none" xmlns="http://www.w3.org/2000/svg">
<rect x="-20" width="1471" height="769" fill="#FC7F0C"/>
<g style="mix-blend-mode:color-dodge" filter="url(#filter0_d)">
<path d="M1439.76 5.40649H0V778H1439.76V5.40649Z" fill="url(#paint0_linear)"/>
<path d="M1439.76 138.913V5H0V777.594H148.949C110.769 558.739 347.155 473.596 607.817 558.943C869.185 644.493 1184.29 743.048 1125.37 408.569C1084.36 177.116 1302.13 139.726 1439.76 138.913Z" fill="url(#paint1_linear)"/>
</g>
<path d="M453.774 0.019664C346.48 0.0197022 372.17 118 281.5 118C190.829 118 211.986 -1.7611 109.226 0.019664C103.182 0.124399 219.74 0.019664 281.5 0.019664C343.26 0.019664 459.819 0.0196618 453.774 0.019664Z" fill="white"/>
<path d="M1185.17 768.985C1267.9 768.985 1248.09 678 1318 678C1387.91 678 1371.6 770.358 1450.83 768.985C1455.49 768.904 1365.62 768.985 1318 768.985C1270.38 768.985 1180.51 768.985 1185.17 768.985Z" fill="white"/>
<defs>
<filter id="filter0_d" x="-4" y="5" width="1447.76" height="781" filterUnits="userSpaceOnUse" color-interpolation-filters="sRGB">
<feFlood flood-opacity="0" result="BackgroundImageFix"/>
<feColorMatrix in="SourceAlpha" type="matrix" values="0 0 0 0 0 0 0 0 0 0 0 0 0 0 0 0 0 0 127 0"/>
<feOffset dy="4"/>
<feGaussianBlur stdDeviation="2"/>
<feColorMatrix type="matrix" values="0 0 0 0 0 0 0 0 0 0 0 0 0 0 0 0 0 0 0.25 0"/>
<feBlend mode="normal" in2="BackgroundImageFix" result="effect1_dropShadow"/>
<feBlend mode="normal" in="SourceGraphic" in2="effect1_dropShadow" result="shape"/>
</filter>
<linearGradient id="paint0_linear" x1="1407.59" y1="754.353" x2="112.727" y2="-164.458" gradientUnits="userSpaceOnUse">
<stop stop-color="#252158"/>
<stop offset="0.5184" stop-color="#202D7C"/>
<stop offset="1" stop-color="#3965AA"/>
</linearGradient>
<linearGradient id="paint1_linear" x1="-112.532" y1="35.6991" x2="1406.93" y2="908.717" gradientUnits="userSpaceOnUse">
<stop stop-color="#252158"/>
<stop offset="0.5184" stop-color="#202D7C"/>
<stop offset="1" stop-color="#3965AA"/>
</linearGradient>
</defs>
</svg>
