<svg width="1440" height="408" xmlns="http://www.w3.org/2000/svg">
 <defs>
  <filter color-interpolation-filters="sRGB" filterUnits="userSpaceOnUse" height="408" width="1447.76" y="0" x="-4" id="filter0_d">
   <feGaussianBlur stdDeviation="2"/>
  </filter>
  <linearGradient y2="-1.348915" x2="0.508206" y1="0.969394" x1="0.977656" id="paint0_linear">
   <stop stop-color="#2580D0"/>
   <stop stop-color="#2383D5" offset="0.5184"/>
   <stop stop-color="#278FDD" offset="1"/>
  </linearGradient>
  <linearGradient y2="2.553616" x2="0.550521" y1="0.039735" x1="-0.07816" id="paint1_linear">
   <stop stop-color="#2480D1"/>
   <stop stop-color="#2085D9" offset="0.5184"/>
   <stop stop-color="#2D97E0" offset="1"/>
  </linearGradient>
 </defs>
 <g>
  <title>background</title>
  <rect fill="none" id="canvas_background" height="402" width="582" y="-1" x="-1"/>
 </g>
 <g>
  <title>Layer 1</title>
  <g filter="url(#filter0_d)" id="Group">
   <path fill="url(#paint0_linear)" d="m1439.76,1.2103l-1439.76,0l0,399.7897l1439.76,0l0,-399.7897z" id="Vector"/>
   <path fill="url(#paint1_linear)" d="m1439.76,70.2955l0,-69.2955l-1439.76,0l0,399.79l148.949,0c-38.18,-113.249 198.206,-157.308 458.868,-113.144c261.368,44.269 576.473,95.268 517.553,-77.813c-41.01,-119.7688 176.76,-139.1169 314.39,-139.5375z" id="Vector_2"/>
  </g>
  <g stroke="null" id="svg_5">
   <path stroke="null" id="svg_4" fill="white" d="m1254.467761,0.018617c-86.861607,0.000038 -66.063848,111.582794 -139.467225,111.582794c-73.403862,0 -56.276192,-113.266991 -139.467079,-111.582794c-4.892849,0.09906 89.468264,0 139.467079,0c49.998815,0 144.361053,0 139.467225,0z"/>
  </g>
  <g stroke="null" transform="rotate(180 333.3327941894531,296.6343994140625) " id="svg_7">
   <path stroke="null" id="svg_6" fill="white" d="m444.50155,190.013784c-70.275088,0.000022 -53.448742,83.254121 -112.835496,83.254121c-59.387152,0 -45.530065,-84.51074 -112.835373,-83.254121c-3.958542,0.073907 72.384,0 112.835373,0c40.451373,0 116.794834,0 112.835496,0z"/>
  </g>
 </g>
</svg>