<svg width="1440" height="408" viewBox="0 0 1440 408" fill="none" xmlns="http://www.w3.org/2000/svg">
<rect x="-20" width="1471" height="400" fill="#006CB6"/>
<g style="mix-blend-mode:screen" filter="url(#filter0_d)">
<path d="M1439.76 0.210297H0V400H1439.76V0.210297Z" fill="url(#paint0_linear)"/>
<path d="M1439.76 69.2955V0H0V399.79H148.949C110.769 286.541 347.155 242.482 607.817 286.646C869.185 330.915 1184.29 381.914 1125.37 208.833C1084.36 89.0642 1302.13 69.7161 1439.76 69.2955Z" fill="url(#paint1_linear)"/>
</g>
<path d="M1195.77 0.019664C1088.48 0.0197022 1114.17 118 1023.5 118C932.829 118 953.986 -1.7611 851.226 0.019664C845.182 0.124399 961.74 0.019664 1023.5 0.019664C1085.26 0.019664 1201.82 0.0196618 1195.77 0.019664Z" fill="white"/>
<path d="M161.174 400.985C243.899 400.985 224.092 310 294 310C363.908 310 347.596 402.358 426.826 400.985C431.485 400.904 341.618 400.985 294 400.985C246.382 400.985 156.514 400.985 161.174 400.985Z" fill="white"/>
<defs>
<filter id="filter0_d" x="-4" y="0" width="1447.76" height="408" filterUnits="userSpaceOnUse" color-interpolation-filters="sRGB">
<feFlood flood-opacity="0" result="BackgroundImageFix"/>
<feColorMatrix in="SourceAlpha" type="matrix" values="0 0 0 0 0 0 0 0 0 0 0 0 0 0 0 0 0 0 127 0"/>
<feOffset dy="4"/>
<feGaussianBlur stdDeviation="2"/>
<feColorMatrix type="matrix" values="0 0 0 0 0 0 0 0 0 0 0 0 0 0 0 0 0 0 0.25 0"/>
<feBlend mode="normal" in2="BackgroundImageFix" result="effect1_dropShadow"/>
<feBlend mode="normal" in="SourceGraphic" in2="effect1_dropShadow" result="shape"/>
</filter>
<linearGradient id="paint0_linear" x1="1407.59" y1="387.764" x2="731.694" y2="-539.072" gradientUnits="userSpaceOnUse">
<stop stop-color="#252158"/>
<stop offset="0.5184" stop-color="#202D7C"/>
<stop offset="1" stop-color="#3965AA"/>
</linearGradient>
<linearGradient id="paint1_linear" x1="-112.532" y1="15.8857" x2="792.618" y2="1020.91" gradientUnits="userSpaceOnUse">
<stop stop-color="#252158"/>
<stop offset="0.5184" stop-color="#202D7C"/>
<stop offset="1" stop-color="#3965AA"/>
</linearGradient>
</defs>
</svg>
