<svg width="202" height="45" viewBox="0 0 202 45" fill="none" xmlns="http://www.w3.org/2000/svg">
<path d="M37.3431 0C37.3431 0 41.4611 8.442 47.602 10.2022C53.7428 11.9625 58.8361 10.4896 59.2335 9.91486C59.6308 9.34008 50.3473 5.96328 44.8566 9.77116C39.366 13.579 31.3829 25.9726 39.7995 36.1749C42.0391 34.1272 37.7405 24.2124 31.1662 21.4822C22.28 17.7462 3.89356 22.0929 5.44684 35.636C9.42033 32.9777 12.274 17.5306 5.44684 8.2983C14.622 9.59155 21.8104 41.4197 2.5209 42.8566C-6.22078 30.8941 9.70931 14.4053 20.7628 14.6927C39.6911 13.615 52.0812 36.8574 42.906 42.8566C31.13 46.2693 27.1204 17.5665 36.1872 9.80709C40.9193 5.85551 57.7885 -4.41858 65.7355 9.26824C64.2184 21.6977 30.227 17.2073 37.3431 0Z" fill="#F5AD1E"/>
<path d="M37.4513 8.98071C37.5596 11.172 39.8715 12.2138 41.2803 13.0041C40.2688 12.2857 38.3182 10.7769 37.4513 8.98071Z" fill="#E07B26"/>
<path d="M32.069 17.0996C31.78 17.9618 31.3104 21.4823 31.3104 21.4823C31.3104 21.4823 30.9853 17.9618 32.069 17.0996Z" fill="#E07B26"/>
<path d="M14.1883 22.2725C13.4658 22.5239 11.1901 23.6016 9.56458 25.1463C12.2015 23.8172 13.7909 22.6317 14.1883 22.2725Z" fill="#E07B26"/>
<path d="M5.84393 7.61572C9.02273 8.87304 9.23946 9.37597 10.6121 10.7051C9.81742 8.51381 9.20334 7.97496 5.84393 7.61572Z" fill="#F5AD1E"/>
<path d="M7.68619 7.32837C9.67293 7.97499 9.7813 8.15461 10.6482 9.26823C10.1425 7.6876 9.85355 7.47206 7.68619 7.32837Z" fill="#F5AD1E"/>
<path d="M12.7072 16.8121C11.8042 17.315 10.4676 18.1413 9.38394 18.9316C9.34782 18.3568 11.9848 16.5247 12.7072 16.8121Z" fill="#E07B26"/>
<path d="M37.2345 20.5122C37.0178 21.0511 36.3315 23.1705 36.2231 25.2541C37.1623 23.6735 37.5596 21.2666 37.2345 20.5122Z" fill="#E07B26"/>
<path d="M41.786 6.21484C42.075 6.68185 45.2538 9.41202 45.5427 9.26833C45.037 8.47802 43.0503 6.68185 41.786 6.21484Z" fill="#E07B26"/>
<path opacity="0.2" d="M23.0383 44.7245C34.8687 44.7245 44.459 44.2903 44.459 43.7546C44.459 43.2189 34.8687 42.7847 23.0383 42.7847C11.208 42.7847 1.61758 43.2189 1.61758 43.7546C1.61758 44.2903 11.208 44.7245 23.0383 44.7245Z" fill="#322E2C"/>
<path d="M68.8057 7.1488V3.23315H90.3709L73.2488 39.9828H89.504V43.9703H66.9273L84.194 7.1488H68.8057Z" fill="#1AC0D8"/>
<path d="M95.681 29.098C95.681 24.6795 97.1981 20.9075 100.269 17.7462C103.339 14.6209 107.06 13.0403 111.467 13.0403C115.874 13.0403 119.594 14.6209 122.665 17.7462C125.735 20.8716 127.252 24.6435 127.252 29.0262C127.252 33.4088 125.735 37.1808 122.701 40.2702C119.666 43.3956 115.946 44.9403 111.503 44.9403C107.06 44.9403 103.303 43.3956 100.269 40.2702C97.1981 37.1808 95.681 33.4448 95.681 29.098ZM123.279 29.1699C123.279 25.829 122.123 22.9551 119.775 20.5123C117.427 18.0696 114.645 16.8482 111.43 16.8482C108.216 16.8482 105.434 18.0696 103.122 20.5123C100.81 22.9551 99.6545 25.8649 99.6545 29.2058C99.6545 32.5826 100.774 35.4206 103.014 37.7556C105.253 40.0906 108.035 41.2761 111.358 41.2761C114.681 41.2761 117.499 40.0906 119.811 37.7197C122.123 35.3846 123.279 32.5108 123.279 29.1699Z" fill="#1AC0D8"/>
<path d="M133.032 29.098C133.032 24.6795 134.549 20.9075 137.619 17.7462C140.69 14.6209 144.41 13.0403 148.817 13.0403C153.224 13.0403 156.945 14.6209 160.015 17.7462C163.086 20.8716 164.603 24.6435 164.603 29.0262C164.603 33.4088 163.086 37.1808 160.052 40.2702C157.017 43.3956 153.297 44.9403 148.853 44.9403C144.41 44.9403 140.654 43.3956 137.619 40.2702C134.549 37.1808 133.032 33.4448 133.032 29.098ZM160.629 29.1699C160.629 25.829 159.474 22.9551 157.126 20.5123C154.778 18.0696 151.996 16.8482 148.781 16.8482C145.566 16.8482 142.785 18.0696 140.473 20.5123C138.161 22.9551 137.005 25.8649 137.005 29.2058C137.005 32.5826 138.125 35.4206 140.365 37.7556C142.604 40.0906 145.386 41.2761 148.709 41.2761C152.032 41.2761 154.85 40.0906 157.162 37.7197C159.474 35.3846 160.629 32.5108 160.629 29.1699Z" fill="#1AC0D8"/>
<path d="M201.99 13.8306V43.9344H198.161V38.7974C194.693 42.9285 190.756 44.9762 186.313 44.9762C181.87 44.9762 178.113 43.3955 175.042 40.2343C171.972 37.073 170.455 33.3011 170.455 28.9543C170.455 24.5717 172.008 20.8357 175.079 17.7103C178.149 14.585 181.833 13.0403 186.132 13.0403C191.081 13.0403 195.091 15.1238 198.161 19.3269V13.8306H201.99ZM198.414 29.0621C198.414 25.6135 197.258 22.7037 194.946 20.3687C192.634 17.9977 189.78 16.8122 186.421 16.8122C183.062 16.8122 180.208 18.0336 177.896 20.4764C175.584 22.9192 174.428 25.7931 174.428 29.134C174.428 32.4748 175.62 35.3487 177.968 37.7915C180.316 40.2343 183.134 41.4557 186.457 41.4557C189.744 41.4557 192.562 40.2702 194.91 37.9352C197.222 35.5643 198.414 32.6185 198.414 29.0621Z" fill="#1AC0D8"/>
<path d="M100.774 6.46609C100.558 6.39424 100.377 6.35832 100.16 6.25055C99.9434 6.1787 99.7628 6.07093 99.5822 5.96316C99.4016 5.85539 99.2571 5.67577 99.1487 5.53208C99.0404 5.38838 98.9681 5.13692 98.9681 4.92138C98.9681 4.66992 99.0404 4.45438 99.1487 4.27476C99.2571 4.09514 99.4016 3.91553 99.5822 3.80776C99.7628 3.69998 99.9434 3.59221 100.16 3.52037C100.377 3.44852 100.594 3.4126 100.81 3.4126C100.991 3.4126 101.172 3.44852 101.352 3.48444C101.533 3.52037 101.677 3.59221 101.858 3.66406C102.039 3.73591 102.147 3.84368 102.255 3.95145C102.364 4.05922 102.472 4.20291 102.58 4.34661C102.617 4.38253 102.617 4.41845 102.58 4.45438C102.58 4.4903 102.544 4.52622 102.508 4.56215C102.472 4.59807 102.436 4.59807 102.364 4.59807C102.291 4.59807 102.255 4.56215 102.219 4.56215C102.039 4.31068 101.822 4.13107 101.569 4.0233C101.316 3.91553 101.063 3.8796 100.774 3.8796C100.63 3.8796 100.449 3.91553 100.305 3.95145C100.16 3.98737 99.9796 4.05922 99.8351 4.16699C99.6906 4.27476 99.5822 4.38253 99.51 4.52622C99.4377 4.66992 99.3655 4.84953 99.3655 5.02915C99.3655 5.20877 99.4016 5.38838 99.51 5.53208C99.6183 5.67577 99.7267 5.78354 99.9073 5.85539C100.052 5.92723 100.232 5.99908 100.413 6.07093C100.594 6.14278 100.738 6.1787 100.883 6.21462C101.135 6.28647 101.388 6.39424 101.605 6.50201C101.822 6.60978 102.039 6.71755 102.219 6.86124C102.4 7.00494 102.544 7.14863 102.653 7.32825C102.761 7.50786 102.833 7.7234 102.833 7.97487C102.833 8.26226 102.761 8.51372 102.653 8.72926C102.544 8.9448 102.4 9.16034 102.219 9.30403C102.039 9.44773 101.822 9.59142 101.569 9.66327C101.316 9.73511 101.063 9.80696 100.81 9.80696C100.594 9.80696 100.377 9.77104 100.16 9.73511C99.9434 9.69919 99.7628 9.59142 99.5822 9.48365C99.4016 9.37588 99.2571 9.26811 99.1126 9.12442C98.9681 8.98072 98.8959 8.83703 98.8236 8.65741C98.7875 8.58557 98.7875 8.51372 98.8236 8.4778C98.8598 8.44187 98.8959 8.40595 98.932 8.37003C98.9681 8.37003 99.0042 8.3341 99.0404 8.3341C99.1126 8.3341 99.1849 8.37003 99.221 8.4778C99.2932 8.62149 99.3655 8.72926 99.4738 8.87295C99.5822 8.98072 99.7267 9.08849 99.8712 9.16034C100.016 9.23219 100.16 9.30403 100.341 9.33996C100.521 9.37588 100.666 9.4118 100.847 9.4118C101.027 9.4118 101.208 9.37588 101.424 9.33996C101.641 9.30403 101.786 9.19626 101.93 9.08849C102.075 8.98072 102.183 8.83703 102.291 8.65741C102.4 8.4778 102.436 8.26226 102.436 8.04672C102.436 7.83117 102.4 7.68748 102.291 7.54379C102.183 7.40009 102.075 7.29232 101.93 7.18455C101.786 7.07678 101.605 7.00494 101.388 6.93309C101.172 6.60978 100.955 6.53793 100.774 6.46609Z" fill="#F79148"/>
<path d="M104.748 7.54376C104.784 7.79522 104.82 8.01076 104.928 8.19038C105.037 8.40592 105.181 8.58554 105.326 8.72923C105.47 8.87293 105.687 9.01662 105.904 9.08847C106.12 9.16031 106.337 9.23216 106.59 9.23216C106.734 9.23216 106.879 9.23216 106.987 9.19624C107.132 9.16031 107.24 9.12439 107.385 9.05254C107.493 8.9807 107.638 8.94477 107.746 8.837C107.854 8.72923 107.927 8.65738 108.035 8.54961C108.071 8.51369 108.143 8.47777 108.179 8.47777H108.216C108.216 8.47777 108.216 8.47777 108.252 8.47777C108.288 8.47777 108.324 8.51369 108.36 8.54961C108.396 8.58554 108.396 8.62146 108.396 8.69331C108.396 8.76516 108.36 8.80108 108.324 8.837C108.143 9.05254 107.89 9.23216 107.601 9.37585C107.312 9.51955 106.987 9.59139 106.626 9.59139C106.301 9.59139 106.012 9.51955 105.723 9.41178C105.434 9.30401 105.181 9.12439 105.001 8.90885C104.784 8.69331 104.639 8.44184 104.495 8.15446C104.387 7.86707 104.314 7.57968 104.314 7.25637C104.314 6.93306 104.387 6.64568 104.495 6.35829C104.603 6.0709 104.784 5.81944 105.001 5.63982C105.217 5.42428 105.47 5.28059 105.723 5.13689C106.012 5.02912 106.301 4.95728 106.626 4.95728C106.951 4.95728 107.24 5.02912 107.529 5.13689C107.818 5.24466 108.071 5.42428 108.252 5.63982C108.468 5.85536 108.613 6.10682 108.757 6.35829C108.866 6.64568 108.938 6.93306 108.938 7.25637C108.938 7.32822 108.902 7.36414 108.866 7.40007C108.83 7.43599 108.793 7.47191 108.721 7.47191H104.748V7.54376ZM108.505 7.18453C108.505 6.93306 108.432 6.71752 108.324 6.50198C108.216 6.28644 108.071 6.10682 107.927 5.96313C107.746 5.81944 107.565 5.67574 107.349 5.6039C107.132 5.53205 106.879 5.4602 106.626 5.4602C106.373 5.4602 106.12 5.49613 105.904 5.6039C105.687 5.67574 105.506 5.81944 105.326 5.96313C105.145 6.10682 105.037 6.28644 104.928 6.50198C104.82 6.71752 104.784 6.93306 104.748 7.18453H108.505Z" fill="#F79148"/>
<path d="M112.875 5.4962C112.622 5.4962 112.37 5.53212 112.117 5.63989C111.864 5.74766 111.683 5.89135 111.503 6.07097C111.322 6.25059 111.178 6.46613 111.069 6.71759C110.961 6.96906 110.925 7.22052 110.925 7.50791V9.41185C110.925 9.48369 110.889 9.51962 110.852 9.55554C110.816 9.59146 110.78 9.62739 110.708 9.62739C110.636 9.62739 110.6 9.59146 110.563 9.55554C110.527 9.51962 110.491 9.44777 110.491 9.41185V7.50791C110.491 7.1846 110.563 6.86129 110.672 6.5739C110.816 6.28651 110.961 6.03505 111.178 5.81951C111.394 5.60397 111.647 5.42435 111.936 5.31658C112.225 5.17289 112.55 5.13696 112.875 5.13696H112.911C112.984 5.13696 113.02 5.17289 113.092 5.20881C113.164 5.24473 113.164 5.28066 113.164 5.3525C113.164 5.42435 113.128 5.46027 113.092 5.4962C113.056 5.53212 112.984 5.56804 112.948 5.56804H112.875V5.4962Z" fill="#F79148"/>
<path d="M116.163 8.90874L117.86 5.20863C117.896 5.10086 117.969 5.06494 118.041 5.06494C118.077 5.06494 118.077 5.06494 118.113 5.10086C118.185 5.13679 118.221 5.17271 118.221 5.20863C118.221 5.24456 118.258 5.3164 118.221 5.38825L116.343 9.44759C116.307 9.55536 116.235 9.59129 116.126 9.59129C116.054 9.59129 116.018 9.59129 115.982 9.55537C115.946 9.51944 115.91 9.48352 115.91 9.44759L114.104 5.38825C114.067 5.3164 114.067 5.28048 114.104 5.20863C114.14 5.17271 114.176 5.10086 114.212 5.10086C114.248 5.10086 114.248 5.06494 114.284 5.06494C114.392 5.06494 114.429 5.10086 114.501 5.20863L116.163 8.90874Z" fill="#F79148"/>
<path d="M119.594 4.13114C119.594 4.05929 119.63 3.98744 119.666 3.9156C119.739 3.87967 119.775 3.84375 119.847 3.84375C119.919 3.84375 119.991 3.87967 120.064 3.9156C120.136 3.95152 120.136 4.02337 120.136 4.13114C120.136 4.20298 120.1 4.27483 120.064 4.31075C120.028 4.34668 119.955 4.3826 119.847 4.3826C119.775 4.3826 119.703 4.34668 119.666 4.31075C119.63 4.27483 119.594 4.20298 119.594 4.13114ZM120.1 9.37595C120.1 9.4478 120.064 9.48372 120.028 9.51965C119.991 9.55557 119.955 9.59149 119.883 9.59149C119.811 9.59149 119.775 9.55557 119.739 9.51965C119.703 9.48372 119.666 9.41188 119.666 9.37595V5.31661C119.666 5.24476 119.703 5.20884 119.739 5.17292C119.775 5.13699 119.847 5.10107 119.883 5.10107C119.955 5.10107 119.991 5.13699 120.028 5.17292C120.064 5.20884 120.1 5.28069 120.1 5.31661V9.37595Z" fill="#F79148"/>
<path d="M122.231 7.32811C122.231 7.36404 122.231 7.36404 122.231 7.36404C122.231 7.6155 122.267 7.83104 122.376 8.08251C122.484 8.29805 122.592 8.51359 122.773 8.6932C122.954 8.87282 123.134 9.01651 123.351 9.12428C123.568 9.23205 123.82 9.26798 124.073 9.26798C124.326 9.26798 124.543 9.23205 124.76 9.16021C124.976 9.08836 125.157 8.94467 125.338 8.80097C125.374 8.76505 125.41 8.76505 125.41 8.72913C125.446 8.6932 125.482 8.6932 125.518 8.6932C125.554 8.6932 125.627 8.72913 125.663 8.76505C125.699 8.80097 125.735 8.87282 125.735 8.90874C125.735 8.98059 125.699 9.01651 125.663 9.08836C125.482 9.26798 125.229 9.4476 124.976 9.55537C124.687 9.66314 124.398 9.73498 124.109 9.73498C123.784 9.73498 123.495 9.66314 123.206 9.55537C122.917 9.4476 122.701 9.26798 122.484 9.05244C122.267 8.8369 122.123 8.62136 121.978 8.33397C121.87 8.04658 121.798 7.7592 121.798 7.43589V7.39996V7.36404C121.798 7.04073 121.87 6.75334 121.978 6.46595C122.087 6.17857 122.267 5.96303 122.484 5.74749C122.701 5.53195 122.954 5.38825 123.206 5.24456C123.495 5.13679 123.784 5.06494 124.109 5.06494C124.398 5.06494 124.687 5.10086 124.976 5.20863C125.265 5.31641 125.482 5.4601 125.663 5.63972C125.699 5.67564 125.735 5.74749 125.735 5.81933C125.735 5.89118 125.699 5.9271 125.663 5.96303C125.627 5.99895 125.59 6.03487 125.518 6.03487C125.482 6.03487 125.446 6.03487 125.41 5.99895C125.374 5.99895 125.338 5.96303 125.338 5.9271C125.157 5.78341 124.976 5.63972 124.76 5.56787C124.543 5.49602 124.326 5.4601 124.073 5.4601C123.82 5.4601 123.568 5.49602 123.351 5.60379C123.134 5.71156 122.917 5.85526 122.773 5.99895C122.592 6.17857 122.484 6.35818 122.376 6.60965C122.267 6.82519 122.231 7.07665 122.231 7.32811Z" fill="#F79148"/>
<path d="M127.469 4.13114C127.469 4.05929 127.505 3.98744 127.541 3.9156C127.613 3.87967 127.65 3.84375 127.722 3.84375C127.794 3.84375 127.866 3.87967 127.939 3.9156C128.011 3.95152 128.011 4.02337 128.011 4.13114C128.011 4.20298 127.975 4.27483 127.939 4.31075C127.902 4.34668 127.83 4.3826 127.722 4.3826C127.65 4.3826 127.577 4.34668 127.541 4.31075C127.505 4.27483 127.469 4.20298 127.469 4.13114ZM127.975 9.37595C127.975 9.4478 127.938 9.48372 127.902 9.51965C127.866 9.55557 127.83 9.59149 127.758 9.59149C127.686 9.59149 127.65 9.55557 127.613 9.51965C127.577 9.48372 127.541 9.41188 127.541 9.37595V5.31661C127.541 5.24476 127.577 5.20884 127.613 5.17292C127.65 5.13699 127.722 5.10107 127.758 5.10107C127.83 5.10107 127.866 5.13699 127.902 5.17292C127.938 5.20884 127.975 5.28069 127.975 5.31661V9.37595Z" fill="#F79148"/>
<path d="M129.672 7.32818C129.672 7.00487 129.745 6.71749 129.853 6.4301C129.961 6.14271 130.142 5.89125 130.359 5.67571C130.575 5.46017 130.828 5.31647 131.117 5.17278C131.406 5.06501 131.695 4.99316 132.02 4.99316C132.345 4.99316 132.634 5.06501 132.923 5.17278C133.212 5.28055 133.465 5.46017 133.646 5.67571C133.863 5.89125 134.007 6.14271 134.152 6.4301C134.296 6.71749 134.332 7.00487 134.332 7.32818C134.332 7.65149 134.26 7.93888 134.152 8.22627C134.043 8.51366 133.863 8.76512 133.646 8.98066C133.429 9.1962 133.176 9.33989 132.923 9.48359C132.634 9.59136 132.345 9.6632 132.02 9.6632C131.695 9.6632 131.406 9.59136 131.117 9.48359C130.828 9.37582 130.575 9.1962 130.359 8.98066C130.142 8.76512 129.997 8.51366 129.853 8.22627C129.708 7.97481 129.672 7.65149 129.672 7.32818ZM130.07 7.32818C130.07 7.57965 130.106 7.83111 130.214 8.04665C130.323 8.26219 130.431 8.47773 130.612 8.65735C130.792 8.83697 130.973 8.98066 131.226 9.05251C131.442 9.16028 131.695 9.1962 131.984 9.1962C132.237 9.1962 132.49 9.16028 132.743 9.05251C132.96 8.94474 133.176 8.80104 133.357 8.65735C133.538 8.47773 133.646 8.29812 133.754 8.04665C133.863 7.79519 133.899 7.57965 133.899 7.32818C133.899 7.07672 133.863 6.82526 133.754 6.57379C133.646 6.35825 133.538 6.14271 133.357 5.9631C133.176 5.78348 132.996 5.63979 132.743 5.56794C132.526 5.46017 132.273 5.42424 131.984 5.42424C131.731 5.42424 131.478 5.46017 131.226 5.56794C131.009 5.67571 130.792 5.8194 130.612 5.9631C130.431 6.14271 130.323 6.32233 130.214 6.57379C130.142 6.82526 130.07 7.07672 130.07 7.32818Z" fill="#F79148"/>
<path d="M137.041 7.4C136.897 7.36407 136.752 7.29223 136.608 7.22038C136.463 7.14853 136.319 7.07669 136.211 6.96892C136.102 6.86115 135.994 6.75338 135.922 6.64561C135.849 6.50191 135.813 6.35822 135.813 6.1786C135.813 5.99898 135.849 5.81937 135.958 5.67567C136.03 5.53198 136.138 5.42421 136.283 5.31644C136.427 5.20867 136.572 5.13682 136.752 5.1009C136.933 5.06498 137.114 5.02905 137.294 5.02905C137.583 5.02905 137.836 5.06498 138.089 5.17275C138.342 5.28052 138.522 5.46013 138.631 5.67567C138.667 5.7116 138.667 5.74752 138.667 5.81937C138.667 5.85529 138.631 5.89121 138.631 5.92714C138.595 5.96306 138.559 5.99898 138.486 5.99898C138.45 5.99898 138.414 5.99898 138.414 5.96306C138.27 5.78344 138.125 5.63975 137.944 5.5679C137.764 5.49606 137.583 5.46013 137.33 5.46013C137.222 5.46013 137.078 5.46013 136.969 5.49606C136.861 5.53198 136.716 5.5679 136.608 5.63975C136.5 5.7116 136.427 5.78344 136.355 5.85529C136.283 5.96306 136.247 6.07083 136.247 6.21452C136.247 6.35822 136.283 6.46599 136.319 6.53784C136.391 6.60968 136.463 6.71745 136.536 6.75338C136.644 6.82522 136.752 6.86115 136.861 6.93299C136.969 6.96892 137.114 7.00484 137.258 7.07669C137.475 7.14853 137.692 7.22038 137.872 7.29223C138.053 7.36407 138.233 7.43592 138.378 7.54369C138.522 7.65146 138.631 7.75923 138.739 7.90292C138.811 8.04662 138.884 8.22623 138.884 8.40585C138.884 8.58547 138.848 8.76508 138.775 8.90878C138.703 9.05247 138.595 9.19617 138.45 9.30394C138.306 9.41171 138.161 9.51948 137.944 9.59132C137.764 9.66317 137.547 9.69909 137.33 9.69909C137.15 9.69909 137.005 9.69909 136.825 9.66317C136.68 9.62725 136.5 9.59132 136.391 9.51948C136.247 9.44763 136.138 9.37578 136.03 9.26801C135.922 9.16024 135.849 9.05247 135.777 8.90878C135.741 8.83693 135.741 8.76509 135.777 8.69324C135.813 8.62139 135.849 8.62139 135.922 8.62139C135.994 8.62139 136.066 8.65731 136.138 8.72916C136.247 8.90878 136.391 9.0884 136.608 9.16024C136.825 9.26801 137.078 9.30394 137.366 9.30394C137.511 9.30394 137.655 9.26801 137.8 9.23209C137.944 9.19617 138.053 9.12432 138.161 9.05247C138.27 8.98063 138.342 8.87286 138.414 8.76508C138.486 8.65731 138.522 8.54954 138.522 8.40585C138.522 8.26216 138.486 8.15439 138.414 8.04662C138.342 7.93885 138.233 7.867 138.089 7.79515C137.944 7.72331 137.8 7.65146 137.655 7.57961C137.403 7.50777 137.222 7.43592 137.041 7.4Z" fill="#F79148"/>
<path d="M144.952 8.90874L146.65 5.20863C146.686 5.10086 146.758 5.06494 146.831 5.06494C146.867 5.06494 146.867 5.06494 146.903 5.10086C146.975 5.13679 147.011 5.17271 147.011 5.20863C147.011 5.24456 147.047 5.3164 147.011 5.38825L145.133 9.44759C145.097 9.55536 145.024 9.59129 144.916 9.59129C144.844 9.59129 144.808 9.59129 144.772 9.55537C144.735 9.51944 144.699 9.48352 144.699 9.44759L142.893 5.38825C142.857 5.3164 142.857 5.28048 142.893 5.20863C142.929 5.17271 142.965 5.10086 143.002 5.10086C143.038 5.10086 143.038 5.06494 143.074 5.06494C143.182 5.06494 143.218 5.10086 143.291 5.20863L144.952 8.90874Z" fill="#F79148"/>
<path d="M148.565 7.54376C148.601 7.79522 148.637 8.01076 148.745 8.19038C148.853 8.40592 148.998 8.58554 149.142 8.72923C149.287 8.87293 149.504 9.01662 149.72 9.08847C149.937 9.16031 150.154 9.23216 150.407 9.23216C150.551 9.23216 150.696 9.23216 150.804 9.19624C150.949 9.16031 151.057 9.12439 151.201 9.05254C151.31 8.9807 151.454 8.94477 151.563 8.837C151.671 8.72923 151.743 8.65738 151.852 8.54961C151.888 8.51369 151.96 8.47777 151.996 8.47777H152.032C152.032 8.47777 152.032 8.47777 152.068 8.47777C152.105 8.47777 152.141 8.51369 152.177 8.54961C152.213 8.58554 152.213 8.62146 152.213 8.69331C152.213 8.76516 152.177 8.80108 152.141 8.837C151.96 9.05254 151.707 9.23216 151.418 9.37585C151.129 9.51955 150.804 9.59139 150.443 9.59139C150.118 9.59139 149.829 9.51955 149.54 9.41178C149.251 9.30401 148.998 9.12439 148.817 8.90885C148.601 8.69331 148.456 8.44184 148.312 8.15446C148.203 7.86707 148.131 7.57968 148.131 7.25637C148.131 6.93306 148.203 6.64568 148.312 6.35829C148.42 6.0709 148.601 5.81944 148.817 5.63982C149.034 5.42428 149.287 5.28059 149.54 5.13689C149.829 5.02912 150.118 4.95728 150.443 4.95728C150.768 4.95728 151.057 5.02912 151.346 5.13689C151.635 5.24466 151.888 5.42428 152.068 5.63982C152.285 5.85536 152.43 6.10682 152.574 6.35829C152.682 6.64568 152.755 6.93306 152.755 7.25637C152.755 7.32822 152.719 7.36414 152.683 7.40007C152.646 7.43599 152.61 7.47191 152.538 7.47191H148.565V7.54376ZM152.321 7.18453C152.321 6.93306 152.249 6.71752 152.141 6.50198C152.032 6.28644 151.888 6.10682 151.743 5.96313C151.563 5.81944 151.382 5.67574 151.165 5.6039C150.949 5.53205 150.696 5.4602 150.443 5.4602C150.19 5.4602 149.937 5.49613 149.72 5.6039C149.504 5.67574 149.323 5.81944 149.142 5.96313C148.962 6.10682 148.853 6.28644 148.745 6.50198C148.637 6.71752 148.601 6.93306 148.565 7.18453H152.321Z" fill="#F79148"/>
<path d="M154.633 5.10093H156.945C157.017 5.10093 157.053 5.13685 157.089 5.17277C157.126 5.2087 157.162 5.24462 157.162 5.31647C157.162 5.38831 157.126 5.42424 157.089 5.46016C157.053 5.49608 156.981 5.53201 156.945 5.53201H154.633V7.43595C154.633 7.68741 154.669 7.93888 154.778 8.15442C154.886 8.36996 155.03 8.5855 155.175 8.72919C155.356 8.90881 155.536 9.01658 155.789 9.12435C156.006 9.23212 156.259 9.26804 156.548 9.26804C156.8 9.26804 157.017 9.23212 157.198 9.16027C157.415 9.08842 157.595 8.98065 157.776 8.80104C157.812 8.76511 157.812 8.76511 157.848 8.76511H157.884H157.92C157.956 8.76511 158.029 8.76511 158.065 8.80104C158.101 8.83696 158.137 8.90881 158.137 8.98065C158.137 9.0525 158.101 9.08842 158.065 9.16027C157.884 9.33989 157.631 9.48358 157.378 9.59135C157.126 9.69912 156.837 9.73504 156.548 9.73504C156.223 9.73504 155.934 9.6632 155.645 9.55543C155.356 9.44766 155.103 9.26804 154.886 9.08842C154.669 8.90881 154.489 8.65734 154.38 8.36996C154.272 8.08257 154.2 7.79518 154.2 7.47187V3.69992C154.2 3.62807 154.236 3.59215 154.272 3.55622C154.308 3.5203 154.38 3.48438 154.416 3.48438C154.489 3.48438 154.525 3.5203 154.561 3.55622C154.597 3.59215 154.633 3.66399 154.633 3.69992V5.10093Z" fill="#F79148"/>
<path d="M159.763 7.54376C159.799 7.79522 159.835 8.01076 159.943 8.19038C160.052 8.40592 160.196 8.58554 160.341 8.72923C160.485 8.87293 160.702 9.01662 160.918 9.08847C161.135 9.16031 161.352 9.23216 161.605 9.23216C161.749 9.23216 161.894 9.23216 162.002 9.19624C162.147 9.16031 162.255 9.12439 162.4 9.05254C162.508 8.9807 162.652 8.94477 162.761 8.837C162.869 8.72923 162.941 8.65738 163.05 8.54961C163.086 8.51369 163.158 8.47777 163.194 8.47777H163.23C163.23 8.47777 163.23 8.47777 163.266 8.47777C163.303 8.47777 163.339 8.51369 163.375 8.54961C163.411 8.58554 163.411 8.62146 163.411 8.69331C163.411 8.76516 163.375 8.80108 163.339 8.837C163.158 9.05254 162.905 9.23216 162.616 9.37585C162.327 9.51955 162.002 9.59139 161.641 9.59139C161.316 9.59139 161.027 9.51955 160.738 9.41178C160.449 9.30401 160.196 9.12439 160.015 8.90885C159.799 8.69331 159.654 8.44184 159.51 8.15446C159.401 7.86707 159.329 7.57968 159.329 7.25637C159.329 6.93306 159.401 6.64568 159.51 6.35829C159.618 6.0709 159.799 5.81944 160.015 5.63982C160.232 5.42428 160.485 5.28059 160.738 5.13689C161.027 5.02912 161.316 4.95728 161.641 4.95728C161.966 4.95728 162.255 5.02912 162.544 5.13689C162.833 5.24466 163.086 5.42428 163.266 5.63982C163.483 5.85536 163.628 6.10682 163.772 6.35829C163.881 6.64568 163.953 6.93306 163.953 7.25637C163.953 7.32822 163.917 7.36414 163.881 7.40007C163.844 7.43599 163.808 7.47191 163.736 7.47191H159.763V7.54376ZM163.519 7.18453C163.519 6.93306 163.447 6.71752 163.339 6.50198C163.23 6.28644 163.086 6.10682 162.941 5.96313C162.761 5.81944 162.58 5.67574 162.363 5.6039C162.147 5.53205 161.894 5.4602 161.641 5.4602C161.388 5.4602 161.135 5.49613 160.918 5.6039C160.702 5.67574 160.521 5.81944 160.341 5.96313C160.16 6.10682 160.052 6.28644 159.943 6.50198C159.835 6.71752 159.799 6.93306 159.763 7.18453H163.519Z" fill="#F79148"/>
<path d="M167.89 5.4962C167.637 5.4962 167.384 5.53212 167.132 5.63989C166.879 5.74766 166.698 5.89135 166.517 6.07097C166.337 6.25059 166.192 6.46613 166.084 6.71759C165.976 6.96906 165.94 7.22052 165.94 7.50791V9.41185C165.94 9.48369 165.903 9.51962 165.867 9.55554C165.831 9.59146 165.795 9.62739 165.723 9.62739C165.651 9.62739 165.614 9.59146 165.578 9.55554C165.542 9.51962 165.506 9.44777 165.506 9.41185V7.50791C165.506 7.1846 165.578 6.86129 165.687 6.5739C165.831 6.28651 165.976 6.03505 166.192 5.81951C166.409 5.60397 166.662 5.42435 166.951 5.31658C167.24 5.17289 167.565 5.13696 167.89 5.13696H167.926C167.998 5.13696 168.035 5.17289 168.107 5.20881C168.179 5.24473 168.179 5.28066 168.179 5.3525C168.179 5.42435 168.143 5.46027 168.107 5.4962C168.071 5.53212 167.999 5.56804 167.962 5.56804H167.89V5.4962Z" fill="#F79148"/>
<path d="M169.66 4.13114C169.66 4.05929 169.696 3.98744 169.732 3.9156C169.805 3.87967 169.841 3.84375 169.913 3.84375C169.985 3.84375 170.057 3.87967 170.13 3.9156C170.202 3.95152 170.202 4.02337 170.202 4.13114C170.202 4.20298 170.166 4.27483 170.13 4.31075C170.094 4.34668 170.021 4.3826 169.913 4.3826C169.841 4.3826 169.768 4.34668 169.732 4.31075C169.696 4.27483 169.66 4.20298 169.66 4.13114ZM170.166 9.37595C170.166 9.4478 170.13 9.48372 170.094 9.51965C170.057 9.55557 170.021 9.59149 169.949 9.59149C169.877 9.59149 169.841 9.55557 169.805 9.51965C169.768 9.48372 169.732 9.41188 169.732 9.37595V5.31661C169.732 5.24476 169.768 5.20884 169.805 5.17292C169.841 5.13699 169.913 5.10107 169.949 5.10107C170.021 5.10107 170.057 5.13699 170.094 5.17292C170.13 5.20884 170.166 5.28069 170.166 5.31661V9.37595Z" fill="#F79148"/>
<path d="M176.307 9.37582C176.307 9.44767 176.271 9.48359 176.234 9.51951C176.198 9.55544 176.162 9.59136 176.09 9.59136C176.018 9.59136 175.982 9.55544 175.945 9.51951C175.909 9.48359 175.873 9.41174 175.873 9.37582V7.22041C175.873 6.96895 175.837 6.75341 175.765 6.50195C175.693 6.28641 175.584 6.10679 175.44 5.92717C175.295 5.78348 175.115 5.63979 174.898 5.53201C174.681 5.42424 174.464 5.38832 174.212 5.38832C173.959 5.38832 173.742 5.42424 173.525 5.53201C173.309 5.63979 173.128 5.74756 172.983 5.92717C172.839 6.10679 172.694 6.28641 172.622 6.50195C172.55 6.71749 172.478 6.96895 172.478 7.22041V9.37582C172.478 9.44767 172.478 9.48359 172.442 9.51951C172.405 9.55544 172.369 9.59136 172.297 9.59136C172.225 9.59136 172.189 9.55544 172.153 9.51951C172.116 9.48359 172.08 9.41174 172.08 9.37582V7.22041C172.08 6.93303 172.153 6.64564 172.261 6.35825C172.369 6.10679 172.514 5.85533 172.731 5.63979C172.911 5.42424 173.164 5.28055 173.417 5.17278C173.67 5.06501 173.959 4.99316 174.284 4.99316C174.609 4.99316 174.862 5.06501 175.115 5.17278C175.368 5.28055 175.584 5.46017 175.765 5.63979C175.945 5.85533 176.09 6.07087 176.198 6.35825C176.307 6.60972 176.343 6.8971 176.343 7.22041V9.37582H176.307Z" fill="#F79148"/>
<path d="M177.824 7.32818C177.824 7.00487 177.896 6.71749 178.004 6.4301C178.113 6.14271 178.293 5.89125 178.51 5.67571C178.727 5.46017 178.98 5.31647 179.269 5.17278C179.558 5.06501 179.847 4.99316 180.172 4.99316C180.497 4.99316 180.786 5.06501 181.075 5.17278C181.364 5.28055 181.617 5.46017 181.797 5.67571C182.014 5.89125 182.159 6.14271 182.303 6.39418C182.411 6.68156 182.484 6.96895 182.484 7.29226V9.3399C182.484 9.41174 182.448 9.44767 182.411 9.48359C182.375 9.51951 182.303 9.55544 182.267 9.55544C182.195 9.55544 182.159 9.51951 182.122 9.48359C182.086 9.44767 182.05 9.37582 182.05 9.3399V8.62143C181.942 8.76512 181.833 8.90881 181.689 9.01658C181.545 9.12435 181.4 9.23213 181.256 9.3399C181.111 9.41174 180.93 9.48359 180.75 9.55544C180.569 9.59136 180.389 9.62728 180.172 9.62728C179.847 9.62728 179.558 9.55544 179.269 9.44767C178.98 9.3399 178.727 9.16028 178.51 8.94474C178.293 8.7292 178.149 8.47773 178.004 8.19035C177.86 7.97481 177.824 7.6515 177.824 7.32818ZM178.221 7.32818C178.221 7.57965 178.257 7.83111 178.366 8.04665C178.474 8.26219 178.582 8.47773 178.763 8.65735C178.944 8.83697 179.124 8.98066 179.377 9.05251C179.594 9.16028 179.847 9.1962 180.136 9.1962C180.389 9.1962 180.641 9.16028 180.894 9.05251C181.111 8.94474 181.328 8.80104 181.508 8.65735C181.689 8.47773 181.797 8.29812 181.906 8.04665C182.014 7.79519 182.05 7.57965 182.05 7.32818C182.05 7.07672 182.014 6.82526 181.906 6.57379C181.797 6.35825 181.689 6.14271 181.508 5.9631C181.328 5.78348 181.147 5.63979 180.894 5.56794C180.678 5.46017 180.425 5.42425 180.136 5.42425C179.883 5.42425 179.63 5.46017 179.377 5.56794C179.16 5.67571 178.944 5.8194 178.763 5.9631C178.582 6.14271 178.474 6.32233 178.366 6.57379C178.293 6.82526 178.221 7.07672 178.221 7.32818Z" fill="#F79148"/>
<path d="M186.71 5.4962C186.457 5.4962 186.204 5.53212 185.951 5.63989C185.699 5.74766 185.518 5.89135 185.337 6.07097C185.157 6.25059 185.012 6.46613 184.904 6.71759C184.796 6.96906 184.759 7.22052 184.759 7.50791V9.41185C184.759 9.48369 184.723 9.51962 184.687 9.55554C184.651 9.59146 184.615 9.62739 184.543 9.62739C184.47 9.62739 184.434 9.59146 184.398 9.55554C184.362 9.51962 184.326 9.44777 184.326 9.41185V7.50791C184.326 7.1846 184.398 6.86129 184.507 6.5739C184.651 6.28651 184.796 6.03505 185.012 5.81951C185.229 5.60397 185.482 5.42435 185.771 5.31658C186.06 5.17289 186.385 5.13696 186.71 5.13696H186.746C186.818 5.13696 186.855 5.17289 186.927 5.20881C186.999 5.24473 186.999 5.28066 186.999 5.3525C186.999 5.42435 186.963 5.46027 186.927 5.4962C186.891 5.53212 186.818 5.56804 186.782 5.56804H186.71V5.4962Z" fill="#F79148"/>
<path d="M188.516 4.13114C188.516 4.05929 188.552 3.98744 188.588 3.9156C188.661 3.87967 188.697 3.84375 188.769 3.84375C188.841 3.84375 188.914 3.87967 188.986 3.9156C189.058 3.95152 189.058 4.02337 189.058 4.13114C189.058 4.20298 189.022 4.27483 188.986 4.31075C188.95 4.34668 188.877 4.3826 188.769 4.3826C188.697 4.3826 188.625 4.34668 188.588 4.31075C188.552 4.27483 188.516 4.20298 188.516 4.13114ZM189.022 9.37595C189.022 9.4478 188.986 9.48372 188.95 9.51965C188.914 9.55557 188.877 9.59149 188.805 9.59149C188.733 9.59149 188.697 9.55557 188.661 9.51965C188.625 9.48372 188.588 9.41188 188.588 9.37595V5.31661C188.588 5.24476 188.625 5.20884 188.661 5.17292C188.697 5.13699 188.769 5.10107 188.805 5.10107C188.877 5.10107 188.914 5.13699 188.95 5.17292C188.986 5.20884 189.022 5.28069 189.022 5.31661V9.37595Z" fill="#F79148"/>
<path d="M190.684 7.32818C190.684 7.00487 190.756 6.71749 190.864 6.4301C190.973 6.14271 191.153 5.89125 191.37 5.67571C191.587 5.46017 191.839 5.31647 192.128 5.17278C192.417 5.06501 192.706 4.99316 193.032 4.99316C193.357 4.99316 193.646 5.06501 193.935 5.17278C194.224 5.28055 194.476 5.46017 194.657 5.67571C194.874 5.89125 195.018 6.14271 195.163 6.4301C195.307 6.71749 195.343 7.00487 195.343 7.32818C195.343 7.65149 195.271 7.93888 195.163 8.22627C195.054 8.51366 194.874 8.76512 194.657 8.98066C194.44 9.1962 194.187 9.33989 193.935 9.48359C193.646 9.59136 193.357 9.6632 193.032 9.6632C192.706 9.6632 192.417 9.59136 192.128 9.48359C191.839 9.37582 191.587 9.1962 191.37 8.98066C191.153 8.76512 191.009 8.51366 190.864 8.22627C190.756 7.97481 190.684 7.65149 190.684 7.32818ZM191.117 7.32818C191.117 7.57965 191.153 7.83111 191.261 8.04665C191.37 8.26219 191.478 8.47773 191.659 8.65735C191.839 8.83697 192.02 8.98066 192.273 9.05251C192.49 9.16028 192.743 9.1962 193.032 9.1962C193.284 9.1962 193.537 9.16028 193.79 9.05251C194.007 8.94474 194.224 8.80104 194.404 8.65735C194.585 8.47773 194.693 8.29812 194.802 8.04665C194.91 7.79519 194.946 7.57965 194.946 7.32818C194.946 7.07672 194.91 6.82526 194.802 6.57379C194.693 6.35825 194.585 6.14271 194.404 5.9631C194.224 5.78348 194.043 5.63979 193.79 5.56794C193.573 5.46017 193.32 5.42424 193.032 5.42424C192.779 5.42424 192.526 5.46017 192.273 5.56794C192.056 5.67571 191.839 5.8194 191.659 5.9631C191.478 6.14271 191.37 6.32233 191.261 6.57379C191.189 6.82526 191.117 7.07672 191.117 7.32818Z" fill="#F79148"/>
<path d="M198.089 7.4C197.944 7.36407 197.8 7.29223 197.655 7.22038C197.511 7.14853 197.366 7.07669 197.258 6.96892C197.149 6.86115 197.041 6.75338 196.969 6.64561C196.897 6.50191 196.861 6.35822 196.861 6.1786C196.861 5.99898 196.897 5.81937 197.005 5.67567C197.077 5.53198 197.186 5.42421 197.33 5.31644C197.475 5.20867 197.619 5.13682 197.8 5.1009C197.98 5.06498 198.161 5.02905 198.342 5.02905C198.631 5.02905 198.883 5.06498 199.136 5.17275C199.389 5.28052 199.57 5.46013 199.678 5.67567C199.714 5.7116 199.714 5.74752 199.714 5.81937C199.714 5.85529 199.678 5.89121 199.678 5.92714C199.642 5.96306 199.606 5.99898 199.534 5.99898C199.497 5.99898 199.461 5.99898 199.461 5.96306C199.317 5.78344 199.172 5.63975 198.992 5.5679C198.811 5.49606 198.631 5.46013 198.378 5.46013C198.269 5.46013 198.125 5.46013 198.016 5.49606C197.908 5.53198 197.764 5.5679 197.655 5.63975C197.547 5.7116 197.475 5.78344 197.402 5.85529C197.33 5.96306 197.294 6.07083 197.294 6.21452C197.294 6.35822 197.33 6.46599 197.366 6.53784C197.438 6.60968 197.511 6.71745 197.583 6.75338C197.691 6.82522 197.8 6.86115 197.908 6.93299C198.016 6.96892 198.161 7.00484 198.305 7.07669C198.522 7.14853 198.739 7.22038 198.92 7.29223C199.1 7.36407 199.281 7.43592 199.425 7.54369C199.57 7.65146 199.678 7.75923 199.786 7.90292C199.859 8.04662 199.931 8.22623 199.931 8.40585C199.931 8.58547 199.895 8.76508 199.823 8.90878C199.75 9.05247 199.642 9.19617 199.497 9.30394C199.353 9.41171 199.208 9.51948 198.992 9.59132C198.811 9.66317 198.594 9.69909 198.378 9.69909C198.197 9.69909 198.053 9.69909 197.872 9.66317C197.727 9.62725 197.547 9.59132 197.438 9.51948C197.294 9.44763 197.186 9.37578 197.077 9.26801C196.969 9.16024 196.897 9.05247 196.824 8.90878C196.788 8.83693 196.788 8.76509 196.824 8.69324C196.861 8.62139 196.897 8.62139 196.969 8.62139C197.041 8.62139 197.113 8.65731 197.186 8.72916C197.294 8.90878 197.438 9.0884 197.655 9.16024C197.872 9.26801 198.125 9.30394 198.414 9.30394C198.558 9.30394 198.703 9.26801 198.847 9.23209C198.992 9.19617 199.1 9.12432 199.208 9.05247C199.317 8.98063 199.389 8.87286 199.461 8.76508C199.534 8.65731 199.57 8.54954 199.57 8.40585C199.57 8.26216 199.534 8.15439 199.461 8.04662C199.389 7.93885 199.281 7.867 199.136 7.79515C198.992 7.72331 198.847 7.65146 198.703 7.57961C198.45 7.50777 198.269 7.43592 198.089 7.4Z" fill="#F79148"/>
</svg>
